<?xml version="1.0" encoding="UTF-8" standalone="no"?><!DOCTYPE svg PUBLIC "-//W3C//DTD SVG 1.1//EN" "http://www.w3.org/Graphics/SVG/1.1/DTD/svg11.dtd"><!-- Generated by graphviz version 2.40.1 (20161225.0304)
 --><!-- Title: Metric Pages: 1 --><svg xmlns="http://www.w3.org/2000/svg" xmlns:xlink="http://www.w3.org/1999/xlink" width="895pt" height="279pt" viewBox="0.00 0.00 895.32 278.80">
<g id="graph0" class="graph" transform="scale(1 1) rotate(0) translate(4 274.8)">
<title>Metric</title>
<polygon fill="#ffffff" stroke="transparent" points="-4,4 -4,-274.8 891.3219,-274.8 891.3219,4 -4,4"/>
<!-- Homeomorphism -->
<g id="node1" class="node">
<title>Homeomorphism</title>
<polygon fill="none" stroke="#000000" points="113.9832,-270.8 .0056,-270.8 .0056,-234.8 113.9832,-234.8 113.9832,-270.8"/>
<text text-anchor="middle" x="56.9944" y="-248.6" font-family="Times,serif" font-size="14.00" fill="#000000">Homeomorphism</text>
</g>
<!-- Topological_Property -->
<g id="node2" class="node">
<title>Topological_Property</title>
<polygon fill="none" stroke="#000000" points="284.8575,-270.8 149.1313,-270.8 149.1313,-234.8 284.8575,-234.8 284.8575,-270.8"/>
<text text-anchor="middle" x="216.9944" y="-248.6" font-family="Times,serif" font-size="14.00" fill="#000000">Topological Property</text>
</g>
<!-- Homeomorphism&#45;&#45;Topological_Property -->
<g id="edge1" class="edge">
<title>Homeomorphism--Topological_Property</title>
<path fill="none" stroke="#000000" d="M114.1819,-252.8C125.8286,-252.8 137.4754,-252.8 149.1221,-252.8"/>
</g>
<!-- Compactness -->
<g id="node3" class="node">
<title>Compactness</title>
<polygon fill="none" stroke="#000000" points="411.1459,-270.8 320.8429,-270.8 320.8429,-234.8 411.1459,-234.8 411.1459,-270.8"/>
<text text-anchor="middle" x="365.9944" y="-248.6" font-family="Times,serif" font-size="14.00" fill="#000000">Compactness</text>
</g>
<!-- Topological_Property&#45;&#45;Compactness -->
<g id="edge2" class="edge">
<title>Topological_Property--Compactness</title>
<path fill="none" stroke="#000000" d="M284.801,-252.8C296.7475,-252.8 308.6939,-252.8 320.6403,-252.8"/>
</g>
<!-- Closed_Set -->
<g id="node4" class="node">
<title>Closed_Set</title>
<polygon fill="none" stroke="#000000" points="591.2691,-270.8 514.7197,-270.8 514.7197,-234.8 591.2691,-234.8 591.2691,-270.8"/>
<text text-anchor="middle" x="552.9944" y="-248.6" font-family="Times,serif" font-size="14.00" fill="#000000">Closed Set</text>
</g>
<!-- Compactness&#45;&#45;Closed_Set -->
<!-- Sequentially_Compactness -->
<g id="node5" class="node">
<title>Sequentially_Compactness</title>
<polygon fill="none" stroke="#000000" points="448.1341,-109 283.8547,-109 283.8547,-73 448.1341,-73 448.1341,-109"/>
<text text-anchor="middle" x="365.9944" y="-86.8" font-family="Times,serif" font-size="14.00" fill="#000000">Sequentially Compactness</text>
</g>
<!-- Compactness&#45;&#45;Sequentially_Compactness -->
<g id="edge4" class="edge">
<title>Compactness--Sequentially_Compactness</title>
<path fill="none" stroke="#000000" d="M365.9944,-234.554C365.9944,-203.4791 365.9944,-140.6258 365.9944,-109.4276"/>
</g>
<!-- Completeness -->
<g id="node7" class="node">
<title>Completeness</title>
<polygon fill="none" stroke="#000000" points="600.0369,-182 505.9519,-182 505.9519,-146 600.0369,-146 600.0369,-182"/>
<text text-anchor="middle" x="552.9944" y="-159.8" font-family="Times,serif" font-size="14.00" fill="#000000">Completeness</text>
</g>
<!-- Closed_Set&#45;&#45;Completeness -->
<g id="edge7" class="edge">
<title>Closed_Set--Completeness</title>
<path fill="none" stroke="#000000" d="M552.9944,-234.4006C552.9944,-219.0587 552.9944,-197.322 552.9944,-182.072"/>
<text text-anchor="middle" x="654.85" y="-204.2" font-family="Times,serif" font-size="14.00" fill="#000000">Subspace of Complete Metric Space</text>
<polyline fill="none" stroke="#000000" points="756.7056,-200 552.9944,-200 552.9944,-208.6358 "/>
</g>
<!-- Heine_Borel_Theorem -->
<g id="node6" class="node">
<title>Heine_Borel_Theorem</title>
<polygon fill="none" stroke="#000000" points="622.717,-109 483.2718,-109 483.2718,-73 622.717,-73 622.717,-109"/>
<text text-anchor="middle" x="552.9944" y="-86.8" font-family="Times,serif" font-size="14.00" fill="#000000">Heine-Borel Theorem</text>
</g>
<!-- Sequentially_Compactness&#45;&#45;Heine_Borel_Theorem -->
<g id="edge5" class="edge">
<title>Sequentially_Compactness--Heine_Borel_Theorem</title>
<path fill="none" stroke="#000000" d="M448.1721,-91C459.7736,-91 471.375,-91 482.9764,-91"/>
</g>
<!-- Total_Boundedness -->
<g id="node8" class="node">
<title>Total_Boundedness</title>
<polygon fill="none" stroke="#000000" points="614.6982,-36 491.2906,-36 491.2906,0 614.6982,0 614.6982,-36"/>
<text text-anchor="middle" x="552.9944" y="-13.8" font-family="Times,serif" font-size="14.00" fill="#000000">Total Boundedness</text>
</g>
<!-- Heine_Borel_Theorem&#45;&#45;Total_Boundedness -->
<g id="edge9" class="edge">
<title>Heine_Borel_Theorem--Total_Boundedness</title>
<path fill="none" stroke="#000000" d="M552.9944,-72.9551C552.9944,-61.7241 552.9944,-47.3298 552.9944,-36.0904"/>
</g>
<!-- Completeness&#45;&#45;Heine_Borel_Theorem -->
<g id="edge8" class="edge">
<title>Completeness--Heine_Borel_Theorem</title>
<path fill="none" stroke="#000000" d="M552.9944,-145.9551C552.9944,-134.7241 552.9944,-120.3298 552.9944,-109.0904"/>
</g>
<!-- Boundedness -->
<g id="node9" class="node">
<title>Boundedness</title>
<polygon fill="none" stroke="#000000" points="887.1501,-36 796.8387,-36 796.8387,0 887.1501,0 887.1501,-36"/>
<text text-anchor="middle" x="841.9944" y="-13.8" font-family="Times,serif" font-size="14.00" fill="#000000">Boundedness</text>
</g>
<!-- Total_Boundedness&#45;&#45;Boundedness -->
<g id="edge6" class="edge">
<title>Total_Boundedness--Boundedness</title>
<path fill="none" stroke="#000000" d="M614.9922,-18C669.5584,-18 747.7292,-18 796.6383,-18"/>
<text text-anchor="middle" x="705.7565" y="-25.2" font-family="Times,serif" font-size="14.00" fill="#000000">Subspace of Euclidean Space</text>
<polyline fill="none" stroke="#000000" points="787.9743,-21 623.5387,-21 705.6521,-18 "/>
</g>
</g>
</svg>