<?xml version="1.0" encoding="UTF-8" standalone="no"?><!DOCTYPE svg PUBLIC "-//W3C//DTD SVG 1.1//EN" "http://www.w3.org/Graphics/SVG/1.1/DTD/svg11.dtd"><!-- Generated by graphviz version 2.40.1 (20161225.0304)
 --><!-- Title: topology Pages: 1 --><svg xmlns="http://www.w3.org/2000/svg" xmlns:xlink="http://www.w3.org/1999/xlink" width="1065pt" height="441pt" viewBox="0.00 0.00 1064.71 440.60">
<g id="graph0" class="graph" transform="scale(1 1) rotate(0) translate(4 436.6)">
<title>topology</title>
<polygon fill="#ffffff" stroke="transparent" points="-4,4 -4,-436.6 1060.7104,-436.6 1060.7104,4 -4,4"/>
<!-- Topology -->
<g id="node1" class="node">
<title>Topology</title>
<polygon fill="none" stroke="#000000" points="285.4446,-432.6 214.5554,-432.6 214.5554,-396.6 285.4446,-396.6 285.4446,-432.6"/>
<text text-anchor="middle" x="250" y="-410.4" font-family="Times,serif" font-size="14.00" fill="#000000">Topology</text>
</g>
<!-- Open_Set -->
<g id="node2" class="node">
<title>Open_Set</title>
<polygon fill="none" stroke="#000000" points="283.7096,-343.8 216.2904,-343.8 216.2904,-307.8 283.7096,-307.8 283.7096,-343.8"/>
<text text-anchor="middle" x="250" y="-321.6" font-family="Times,serif" font-size="14.00" fill="#000000">Open Set</text>
</g>
<!-- Topology&#45;&#45;Open_Set -->
<g id="edge1" class="edge">
<title>Topology--Open_Set</title>
<path fill="none" stroke="#000000" d="M250,-396.2006C250,-380.8587 250,-359.122 250,-343.872"/>
</g>
<!-- Closed_Set -->
<g id="node3" class="node">
<title>Closed_Set</title>
<polygon fill="none" stroke="#000000" points="699.2747,-343.8 622.7253,-343.8 622.7253,-307.8 699.2747,-307.8 699.2747,-343.8"/>
<text text-anchor="middle" x="661" y="-321.6" font-family="Times,serif" font-size="14.00" fill="#000000">Closed Set</text>
</g>
<!-- Open_Set&#45;&#45;Closed_Set -->
<g id="edge8" class="edge">
<title>Open_Set--Closed_Set</title>
<path fill="none" stroke="#000000" d="M283.9514,-338.01C317.2759,-349.301 369.804,-365.2616 416.8359,-371.6 490.1393,-381.4789 574.8073,-357.5668 622.7149,-340.7048"/>
<text text-anchor="middle" x="453" y="-366" font-family="Times,serif" font-size="14.00" fill="#000000">Complement</text>
</g>
<!-- Perfect_Set -->
<g id="node4" class="node">
<title>Perfect_Set</title>
<polygon fill="none" stroke="#000000" points="533.526,-343.8 456.474,-343.8 456.474,-307.8 533.526,-307.8 533.526,-343.8"/>
<text text-anchor="middle" x="495" y="-321.6" font-family="Times,serif" font-size="14.00" fill="#000000">Perfect Set</text>
</g>
<!-- Open_Set&#45;&#45;Perfect_Set -->
<!-- Neighbourhood -->
<g id="node5" class="node">
<title>Neighbourhood</title>
<polygon fill="none" stroke="#000000" points="301.8725,-36 198.1275,-36 198.1275,0 301.8725,0 301.8725,-36"/>
<text text-anchor="middle" x="250" y="-13.8" font-family="Times,serif" font-size="14.00" fill="#000000">Neighbourhood</text>
</g>
<!-- Open_Set&#45;&#45;Neighbourhood -->
<g id="edge4" class="edge">
<title>Open_Set--Neighbourhood</title>
<path fill="none" stroke="#000000" d="M216.2839,-323.0518C148.0446,-316.5578 0,-297.3371 0,-252.8 0,-252.8 0,-252.8 0,-91 0,-50.1367 124.6283,-30.5854 197.8961,-22.6221"/>
</g>
<!-- Interior -->
<g id="node6" class="node">
<title>Interior</title>
<polygon fill="none" stroke="#000000" points="278.9776,-270.8 221.0224,-270.8 221.0224,-234.8 278.9776,-234.8 278.9776,-270.8"/>
<text text-anchor="middle" x="250" y="-248.6" font-family="Times,serif" font-size="14.00" fill="#000000">Interior</text>
</g>
<!-- Open_Set&#45;&#45;Interior -->
<g id="edge5" class="edge">
<title>Open_Set--Interior</title>
<path fill="none" stroke="#000000" d="M250,-307.7551C250,-296.5241 250,-282.1298 250,-270.8904"/>
</g>
<!-- Interior_Point -->
<g id="node7" class="node">
<title>Interior_Point</title>
<polygon fill="none" stroke="#000000" points="295.5414,-182 204.4586,-182 204.4586,-146 295.5414,-146 295.5414,-182"/>
<text text-anchor="middle" x="250" y="-159.8" font-family="Times,serif" font-size="14.00" fill="#000000">Interior Point</text>
</g>
<!-- Open_Set&#45;&#45;Interior_Point -->
<g id="edge6" class="edge">
<title>Open_Set--Interior_Point</title>
<path fill="none" stroke="#000000" d="M216.1387,-321.2054C165.5386,-313.5674 74.0386,-296.5093 54.5658,-270.8 11.1435,-213.4708 133.9876,-183.0691 204.4146,-170.7296"/>
<text text-anchor="middle" x="133.7171" y="-248.6" font-family="Times,serif" font-size="14.00" fill="#000000">Local criterion for openness</text>
<polyline fill="none" stroke="#000000" points="212.4342,-244.4 55,-244.4 119.991,-301.7809 "/>
</g>
<!-- Closure -->
<g id="node8" class="node">
<title>Closure</title>
<polygon fill="none" stroke="#000000" points="690.5487,-270.8 631.4513,-270.8 631.4513,-234.8 690.5487,-234.8 690.5487,-270.8"/>
<text text-anchor="middle" x="661" y="-248.6" font-family="Times,serif" font-size="14.00" fill="#000000">Closure</text>
</g>
<!-- Closed_Set&#45;&#45;Closure -->
<g id="edge7" class="edge">
<title>Closed_Set--Closure</title>
<path fill="none" stroke="#000000" d="M661,-307.7551C661,-296.5241 661,-282.1298 661,-270.8904"/>
</g>
<!-- Perfect_Set&#45;&#45;Closed_Set -->
<!-- Derived_Set -->
<g id="node9" class="node">
<title>Derived_Set</title>
<polygon fill="none" stroke="#000000" points="536.4762,-270.8 453.5238,-270.8 453.5238,-234.8 536.4762,-234.8 536.4762,-270.8"/>
<text text-anchor="middle" x="495" y="-248.6" font-family="Times,serif" font-size="14.00" fill="#000000">Derived Set</text>
</g>
<!-- Perfect_Set&#45;&#45;Derived_Set -->
<g id="edge9" class="edge">
<title>Perfect_Set--Derived_Set</title>
<path fill="none" stroke="#000000" d="M495,-307.7551C495,-296.5241 495,-282.1298 495,-270.8904"/>
</g>
<!-- Interior&#45;&#45;Interior_Point -->
<g id="edge23" class="edge">
<title>Interior--Interior_Point</title>
<path fill="none" stroke="#000000" d="M250,-234.4006C250,-219.0587 250,-197.322 250,-182.072"/>
</g>
<!-- Boundary -->
<g id="node14" class="node">
<title>Boundary</title>
<polygon fill="none" stroke="#000000" points="418.7121,-270.8 347.2879,-270.8 347.2879,-234.8 418.7121,-234.8 418.7121,-270.8"/>
<text text-anchor="middle" x="383" y="-248.6" font-family="Times,serif" font-size="14.00" fill="#000000">Boundary</text>
</g>
<!-- Interior&#45;&#45;Boundary -->
<!-- Interior_Point&#45;&#45;Neighbourhood -->
<g id="edge10" class="edge">
<title>Interior_Point--Neighbourhood</title>
<path fill="none" stroke="#000000" d="M250,-135.7818C250,-106.4714 250,-61.4651 250,-36.4251"/>
<polygon fill="#000000" stroke="#000000" points="246.5001,-135.8042 250,-145.8042 253.5001,-135.8042 246.5001,-135.8042"/>
</g>
<!-- Boundary_Point -->
<g id="node13" class="node">
<title>Boundary_Point</title>
<polygon fill="none" stroke="#000000" points="435.276,-182 330.724,-182 330.724,-146 435.276,-146 435.276,-182"/>
<text text-anchor="middle" x="383" y="-159.8" font-family="Times,serif" font-size="14.00" fill="#000000">Boundary Point</text>
</g>
<!-- Interior_Point&#45;&#45;Boundary_Point -->
<g id="edge18" class="edge">
<title>Interior_Point--Boundary_Point</title>
<path fill="none" stroke="#000000" d="M295.7188,-164C307.4244,-164 319.1301,-164 330.8358,-164"/>
</g>
<!-- Adherent_Point -->
<g id="node12" class="node">
<title>Adherent_Point</title>
<polygon fill="none" stroke="#000000" points="799.1536,-182 522.8464,-182 522.8464,-146 799.1536,-146 799.1536,-182"/>
<text text-anchor="middle" x="661" y="-159.8" font-family="Times,serif" font-size="14.00" fill="#000000">Adherent Point / Closure Point / Contact Point</text>
</g>
<!-- Closure&#45;&#45;Adherent_Point -->
<g id="edge24" class="edge">
<title>Closure--Adherent_Point</title>
<path fill="none" stroke="#000000" d="M661,-234.4006C661,-219.0587 661,-197.322 661,-182.072"/>
</g>
<!-- Limit_Set -->
<g id="node16" class="node">
<title>Limit_Set</title>
<polygon fill="none" stroke="#000000" points="878.0046,-270.8 809.9954,-270.8 809.9954,-234.8 878.0046,-234.8 878.0046,-270.8"/>
<text text-anchor="middle" x="844" y="-248.6" font-family="Times,serif" font-size="14.00" fill="#000000">Limit Set</text>
</g>
<!-- Closure&#45;&#45;Limit_Set -->
<g id="edge28" class="edge">
<title>Closure--Limit_Set</title>
<path fill="none" stroke="#000000" d="M690.666,-252.8C730.3971,-252.8 770.1282,-252.8 809.8592,-252.8"/>
</g>
<!-- Derived_Set&#45;&#45;Closure -->
<!-- Cluster_Point -->
<g id="node10" class="node">
<title>Cluster_Point</title>
<polygon fill="none" stroke="#000000" points="638.5554,-109 351.4446,-109 351.4446,-73 638.5554,-73 638.5554,-109"/>
<text text-anchor="middle" x="495" y="-86.8" font-family="Times,serif" font-size="14.00" fill="#000000">Cluster Point / Limit point / Accumulation Point</text>
</g>
<!-- Derived_Set&#45;&#45;Cluster_Point -->
<g id="edge25" class="edge">
<title>Derived_Set--Cluster_Point</title>
<path fill="none" stroke="#000000" d="M495,-234.554C495,-203.4791 495,-140.6258 495,-109.4276"/>
</g>
<!-- Cluster_Point&#45;&#45;Neighbourhood -->
<g id="edge11" class="edge">
<title>Cluster_Point--Neighbourhood</title>
<path fill="none" stroke="#000000" d="M424.6929,-70.0514C385.5711,-58.3947 337.714,-44.1352 301.9886,-33.4905"/>
<polygon fill="#000000" stroke="#000000" points="423.8551,-73.4537 434.4382,-72.9551 425.854,-66.7452 423.8551,-73.4537"/>
</g>
<!-- Isolated_Point -->
<g id="node11" class="node">
<title>Isolated_Point</title>
<polygon fill="none" stroke="#000000" points="767.8802,-109 674.1198,-109 674.1198,-73 767.8802,-73 767.8802,-109"/>
<text text-anchor="middle" x="721" y="-86.8" font-family="Times,serif" font-size="14.00" fill="#000000">Isolated Point</text>
</g>
<!-- Cluster_Point&#45;&#45;Isolated_Point -->
<!-- Isolated_Point&#45;&#45;Neighbourhood -->
<g id="edge12" class="edge">
<title>Isolated_Point--Neighbourhood</title>
<path fill="none" stroke="#000000" d="M664.2388,-76.393C658.7672,-75.1693 653.288,-74.0145 648,-73 524.8628,-49.3774 378.4279,-31.8123 302.1203,-23.4443"/>
<polygon fill="#000000" stroke="#000000" points="663.5052,-79.8157 674.0362,-78.6546 665.0797,-72.995 663.5052,-79.8157"/>
</g>
<!-- Adherent_Point&#45;&#45;Neighbourhood -->
<g id="edge13" class="edge">
<title>Adherent_Point--Neighbourhood</title>
<path fill="none" stroke="#000000" d="M739.8415,-141.4335C754.5778,-133.5646 768.1196,-123.0385 777,-109 785.5535,-95.4782 787.7104,-84.8864 777,-73 745.5566,-38.1042 428.8166,-23.8806 302.0446,-19.556"/>
<polygon fill="#000000" stroke="#000000" points="737.9776,-138.4494 730.5426,-145.9974 741.0618,-144.7334 737.9776,-138.4494"/>
</g>
<!-- Adherent_Point&#45;&#45;Cluster_Point -->
<g id="edge16" class="edge">
<title>Adherent_Point--Cluster_Point</title>
<path fill="none" stroke="#000000" d="M619.9663,-145.9551C594.4275,-134.7241 561.6951,-120.3298 536.137,-109.0904"/>
</g>
<!-- Adherent_Point&#45;&#45;Isolated_Point -->
<g id="edge17" class="edge">
<title>Adherent_Point--Isolated_Point</title>
<path fill="none" stroke="#000000" d="M675.8315,-145.9551C685.0623,-134.7241 696.8933,-120.3298 706.1312,-109.0904"/>
</g>
<!-- Limit -->
<g id="node15" class="node">
<title>Limit</title>
<polygon fill="none" stroke="#000000" points="1021.1645,-182 834.8355,-182 834.8355,-146 1021.1645,-146 1021.1645,-182"/>
<text text-anchor="middle" x="928" y="-159.8" font-family="Times,serif" font-size="14.00" fill="#000000">Limit (of Converge Sequence)</text>
</g>
<!-- Adherent_Point&#45;&#45;Limit -->
<g id="edge27" class="edge">
<title>Adherent_Point--Limit</title>
<path fill="none" stroke="#000000" d="M799.1934,-164C811.0174,-164 822.8415,-164 834.6655,-164"/>
</g>
<!-- Boundary_Point&#45;&#45;Neighbourhood -->
<g id="edge14" class="edge">
<title>Boundary_Point--Neighbourhood</title>
<path fill="none" stroke="#000000" d="M359.3721,-138.0626C332.7643,-108.854 290.1952,-62.124 266.7845,-36.4251"/>
<polygon fill="#000000" stroke="#000000" points="357.1027,-140.7687 366.4244,-145.8042 362.2774,-136.0546 357.1027,-140.7687"/>
</g>
<!-- Boundary_Point&#45;&#45;Adherent_Point -->
<g id="edge19" class="edge">
<title>Boundary_Point--Adherent_Point</title>
<path fill="none" stroke="#000000" d="M435.3965,-164C464.4782,-164 493.5599,-164 522.6416,-164"/>
</g>
<!-- Boundary&#45;&#45;Derived_Set -->
<!-- Boundary&#45;&#45;Boundary_Point -->
<g id="edge26" class="edge">
<title>Boundary--Boundary_Point</title>
<path fill="none" stroke="#000000" d="M383,-234.4006C383,-219.0587 383,-197.322 383,-182.072"/>
</g>
<!-- Limit_Set&#45;&#45;Limit -->
<g id="edge29" class="edge">
<title>Limit_Set--Limit</title>
<path fill="none" stroke="#000000" d="M861.4049,-234.4006C875.9174,-219.0587 896.4792,-197.322 910.9048,-182.072"/>
<text text-anchor="middle" x="974.8552" y="-204.2" font-family="Times,serif" font-size="14.00" fill="#000000">The limits of limits are limits</text>
</g>
</g>
</svg>